<svg width="21" height="21" viewBox="0 0 21 21" fill="none" xmlns="http://www.w3.org/2000/svg">
<path d="M7.63542 20.9163L7.21875 17.583C6.99306 17.4962 6.78056 17.392 6.58125 17.2705C6.38125 17.149 6.18576 17.0188 5.99479 16.8799L2.89583 18.182L0.03125 13.234L2.71354 11.2028C2.69618 11.0813 2.6875 10.9639 2.6875 10.8507V10.1476C2.6875 10.0351 2.69618 9.91808 2.71354 9.79655L0.03125 7.7653L2.89583 2.81738L5.99479 4.11947C6.18576 3.98058 6.38542 3.85037 6.59375 3.72884C6.80208 3.60731 7.01042 3.50315 7.21875 3.41634L7.63542 0.0830078H13.3646L13.7812 3.41634C14.0069 3.50315 14.2198 3.60731 14.4198 3.72884C14.6191 3.85037 14.8142 3.98058 15.0052 4.11947L18.1042 2.81738L20.9687 7.7653L18.2865 9.79655C18.3038 9.91808 18.3125 10.0351 18.3125 10.1476V10.8507C18.3125 10.9639 18.2951 11.0813 18.2604 11.2028L20.9427 13.234L18.0781 18.182L15.0052 16.8799C14.8142 17.0188 14.6146 17.149 14.4062 17.2705C14.1979 17.392 13.9896 17.4962 13.7812 17.583L13.3646 20.9163H7.63542ZM10.5521 14.1455C11.559 14.1455 12.4184 13.7896 13.1302 13.0778C13.842 12.366 14.1979 11.5066 14.1979 10.4997C14.1979 9.49273 13.842 8.63335 13.1302 7.92155C12.4184 7.20974 11.559 6.85384 10.5521 6.85384C9.52778 6.85384 8.66389 7.20974 7.96042 7.92155C7.25764 8.63335 6.90625 9.49273 6.90625 10.4997C6.90625 11.5066 7.25764 12.366 7.96042 13.0778C8.66389 13.7896 9.52778 14.1455 10.5521 14.1455Z" fill="#9A9A9A"/>
</svg>
